# AST/ASF file generated using VICON BodyLanguage
# -----------------------------------------------
:version 1.10
:name VICON
:units
  mass 1.0
  length 0.45
  angle deg
:documentation
   .ast/.asf automatically generated from VICON data using
   VICON BodyBuilder and BodyLanguage model FoxedUp or BRILLIANT.MOD
:root
   order TX TY TZ RX RY RZ
   axis XYZ
   position 0 0 0  
   orientation 0 0 0 
:bonedata
  begin
     id 1 
     name lhipjoint
     direction 0.623415 -0.642378 0.445763 
     length 2.49859 
     axis 0 0 0  XYZ
  end
  begin
     id 2 
     name lfemur
     direction 0.34202 -0.939693 0  
     length 6.69689  
     axis 0 0 20  XYZ
    dof rx ry rz
    limits (-160.0 20.0)
           (-70.0 70.0)
           (-60.0 70.0)
  end
  begin
     id 3 
     name ltibia
     direction 0.34202 -0.939693 0   
     length 7.37574   
     axis 0 0 20   XYZ
    dof rx
    limits (-10.0 170.0)
  end
  begin
     id 4 
     name lfoot
     direction 0.084323 -0.231675 0.969132   
     length 2.09111   
     axis -90 7.62852e-016 20   XYZ
    dof rx rz
    limits (-45.0 90.0)
           (-70.0 20.0)
  end
  begin
     id 5 
     name ltoes
     direction 1.5357e-011 -4.21957e-011 1   
     length 1.04989   
     axis -90 7.62852e-016 20   XYZ
    dof rx
    limits (-90.0 20.0)
  end
  begin
     id 6 
     name rhipjoint
     direction -0.605402 -0.653903 0.45376   
     length 2.45455  
     axis 0 0 0  XYZ 
  end
  begin
     id 7 
     name rfemur
     direction -0.34202 -0.939693 0   
     length 6.64523   
     axis 0 0 -20   XYZ
    dof rx ry rz
    limits (-160.0 20.0)
           (-70.0 70.0)
           (-70.0 60.0)
  end
  begin
     id 8 
     name rtibia
     direction -0.34202 -0.939693 0   
     length 7.3339   
     axis 0 0 -20   XYZ
    dof rx
    limits (-10.0 170.0)
 end
 begin
     id 9 
     name rfoot
     direction -0.120854 -0.332043 0.93549   
     length 2.23135  
     axis -90 -7.62852e-016 -20   XYZ
    dof rx rz
    limits (-45.0 90.0)
           (-20.0 70.0)
  end
  begin
     id 10 
     name rtoes
     direction -1.53563e-011 -4.21914e-011 1   
     length 1.10614   
     axis -90 -7.62852e-016 -20   XYZ
    dof rx
    limits (-90.0 20.0)
  end
  begin
     id 11 
     name lowerback
     direction 0.0319682 0.998615 -0.0417941   
     length 2.02718   
     axis 0 0 0   XYZ
    dof rx ry rz
    limits (-20.0 45.0)
           (-30.0 30.0)
           (-30.0 30.0)
  end
  begin
     id 12 
     name upperback
     direction 7.63181e-005 0.995808 0.0914691   
     length 1.97539   
     axis 0 0 0   XYZ
    dof rx ry rz
    limits (-20.0 45.0)
           (-30.0 30.0)
           (-30.0 30.0)
  end
  begin
     id 13 
     name thorax
     direction -0.016423 0.993627 0.111514   
     length 2.00349   
     axis 0 0 0   XYZ
    dof rx ry rz
    limits (-20.0 45.0)
           (-30.0 30.0)
           (-30.0 30.0)
  end
  begin
     id 14 
     name lowerneck
     direction -0.174763 0.981668 -0.0760716   
     length 1.71436   
     axis 0 0 0   XYZ
    dof rx ry rz
    limits (-20.0 45.0)
           (-30.0 30.0)
           (-30.0 30.0)
  end
  begin
     id 15 
     name upperneck
     direction 0.345458 0.934587 -0.0848868   
     length 1.72805   
     axis 0 0 0   XYZ
    dof rx ry rz
    limits (-20.0 45.0)
           (-30.0 30.0)
           (-30.0 30.0)
  end
  begin
     id 16
     name head
     direction 0.13001 0.989848 -0.0574291  
     length 1.767  
     axis 0 0 0   XYZ
    dof rx ry rz
    limits (-20.0 45.0)
           (-30.0 30.0)
           (-30.0 30.0)
  end
  begin
     id 17 
     name lclavicle
     direction 0.952951 0.290122 0.0878234  
     length 3.54654  
     axis 0 0 0   XYZ
    dof ry rz
    limits (-20.0 10.0)
           (0.0 20.0)
  end
  begin
     id 18 
     name lhumerus
     direction 1 -4.48957e-011 -4.56525e-028   
     length 5.19807   
     axis 180 -30 -90   XYZ
    dof rx ry rz
    limits (-60.0 90.0)
           (-90.0 90.0)
           (-90.0 90.0)
  end
  begin
     id 19
     name lradius
     direction 1 -4.48979e-011 -2.0317e-027   
     length 3.0937   
     axis 180 -30 -90   XYZ
    dof rx
    limits (-10.0 170.0)
  end
  begin
     id 20
     name lwrist
     direction 1 -4.48953e-011 -3.05809e-027   
     length 1.54685   
     axis 8.48514e-016 90 90   XYZ
    dof ry
    limits (-180.0 0.0)
 end
  begin
     id 21 
     name lhand
     direction 1 -4.48952e-011 -6.11639e-027   
     length 0.672632   
     axis 3.9013e-015 90 90   XYZ
    dof rx rz
    limits (-90.0 90.0)
           (-45.0 45.0)
  end
  begin
     id 22 
     name lfingers
     direction 1 -4.48925e-011 -1.22426e-026   
     length 0.542293   
     axis 7.80276e-015 90 90   XYZ
    dof rx
    limits (0.0 90.0)
  end
  begin
     id 23
     name lthumb
     direction 0.707107 -6.3486e-011 0.707107   
     length 0.778628   
     axis -90 45 5.37419e-014   XYZ
    dof rx rz
    limits (-45.0 45.0)
           (-45.0 45.0)
  end
  begin
     id 24 
     name rclavicle
     direction -0.960732 0.273675 -0.0457849   
     length 3.52079  
     axis 0 0 0   XYZ 
    dof ry rz
    limits (-10.0 20.0)
           (-20.0 0.0)
  end
  begin
     id 25 
     name rhumerus
     direction -1 -4.48976e-011 -1.63613e-027  
     length 5.45222   
     axis 180 30 90   XYZ
    dof rx ry rz
    limits (-90.0 60.0)
           (-90.0 90.0)
           (-90.0 90.0)
  end
  begin
     id 26 
     name rradius
     direction -1 -4.48957e-011 -7.00033e-028   
     length 3.01284   
     axis 180 30 90   XYZ
    dof rx
    limits (-10.0 170.0)
  end
  begin
     id 27 
     name rwrist
     direction -1 -4.48983e-011 -3.05543e-027   
     length 1.50642   
     axis 8.48514e-016 -90 -90   XYZ
    dof ry
    limits (-180.0 0.0)
  end
  begin
     id 28
     name rhand
     direction -1 -4.48984e-011 -6.11072e-027   
     length 0.622296   
     axis 3.9013e-015 -90 -90   XYZ
    dof rx rz
    limits (-90.0 90.0)
           (-45.0 45.0)
  end
  begin
     id 29
     name rfingers
     direction -1 -4.48865e-011 -1.22637e-026   
     length 0.501711   
     axis 7.80276e-015 -90 -90   XYZ
    dof rx
    limits (0.0 90.0)
  end
  begin
     id 30
     name rthumb
     direction -0.707107 -6.34932e-011 0.707107   
     length 0.72036   
     axis -90 -45 -5.37419e-014   XYZ
    dof rx rz
    limits (-45.0 45.0)
           (-45.0 45.0)
  end
:hierarchy
  begin
    root lhipjoint rhipjoint lowerback
    lhipjoint lfemur
    lfemur ltibia
    ltibia lfoot
    lfoot ltoes
    rhipjoint rfemur
    rfemur rtibia
    rtibia rfoot
    rfoot rtoes
    lowerback upperback
    upperback thorax
    thorax lowerneck lclavicle rclavicle
    lowerneck upperneck
    upperneck head
    lclavicle lhumerus
    lhumerus lradius
    lradius lwrist
    lwrist lhand lthumb
    lhand lfingers
    rclavicle rhumerus
    rhumerus rradius
    rradius rwrist
    rwrist rhand rthumb
    rhand rfingers
  end

#!OML:ASF H:\Not Pregnant\Project 1\Capture day 1\Session 1\non-pregnant.ASF
:FULLY-SPECIFIED
:DEGREES
110
root -4.43501 13.8963 37.091 187.958 -71.9136 -172.367
lowerback 0.294159 4.4909 0.231321
upperback -4.56825 5.93285 -0.280902
thorax -4.82689 2.90581 -0.679639
lowerneck 10.9676 -2.36374 -25.3633
upperneck 7.15515 -12.6752 47.1672
head 5.66489 -9.09995 27.7464
rclavicle 5.4964e-014 1.87355e-014
rhumerus -31.8559 -6.41847 -86.0444
rradius 63.6844
rwrist -36.2773
rhand -31.0437 -32.1707
rfingers 7.12502
rthumb -4.32536 -62.1065
lclavicle 5.4964e-014 1.87355e-014
lhumerus -37.1894 13.5745 66.9656
lradius 59.6034
lwrist 76.1811
lhand -24.2566 -10.4222
lfingers 7.12502
lthumb 2.22957 19.5459
rfemur -18.9288 -23.6294 27.1902
rtibia 69.9913
rfoot -12.0641 10.8188
rtoes -38.1864
lfemur -53.969 10.0444 -29.6987
ltibia 68.549
lfoot -30.4769 2.33318
ltoes -3.17387
111
root -4.40858 13.8657 37.067 187.825 -71.0053 -172.252
lowerback 0.387129 4.7351 -0.342392
upperback -4.53304 6.24946 -0.161953
thorax -4.91637 3.08925 -0.266571
lowerneck 10.8665 -2.31195 -25.2761
upperneck 7.23905 -12.6159 47.2112
head 5.68109 -9.06508 27.7835
rclavicle -6.47293e-014 3.37934e-015
rhumerus -32.0102 -7.63606 -85.4827
rradius 62.7289
rwrist -37.0193
rhand -31.384 -33.2105
rfingers 7.12502
rthumb -4.65394 -63.1394
lclavicle -6.47293e-014 3.37934e-015
lhumerus -37.425 14.5562 65.8641
lradius 59.0651
lwrist 77.0773
lhand -25.0324 -10.651
lfingers 7.12502
lthumb 1.48026 19.3236
rfemur -17.9883 -23.0097 27.3418
rtibia 68.9643
rfoot -13.0495 10.6649
rtoes -38.2592
lfemur -54.3831 11.1502 -29.6736
ltibia 69.1656
lfoot -30.8138 2.13764
ltoes -3.22791
112
root -4.3797 13.8339 37.0413 187.67 -70.1164 -172.12
lowerback 0.49094 4.98507 -0.931821
upperback -4.49897 6.57233 -0.0473926
thorax -5.02301 3.27664 0.146286
lowerneck 10.7706 -2.27154 -25.1578
upperneck 7.29692 -12.5647 47.2628
head 5.6901 -9.03328 27.8056
rclavicle 1.17103e-013 2.0276e-014
rhumerus -32.1777 -8.95137 -84.8846
rradius 61.767
rwrist -37.6794
rhand -31.7253 -34.2117
rfingers 7.12502
rthumb -4.98354 -64.1331
lclavicle 1.17103e-013 2.0276e-014
lhumerus -37.6307 15.4965 64.7609
lradius 58.5178
lwrist 77.9746
lhand -25.7407 -10.8837
lfingers 7.12502
lthumb 0.796176 19.0945
rfemur -17.093 -22.3767 27.5337
rtibia 67.9217
rfoot -14.1912 10.4889
rtoes -38.3811
lfemur -54.8082 12.2675 -29.6269
ltibia 69.7999
lfoot -31.1487 1.92146
ltoes -3.31635
113
root -4.34886 13.8 37.0181 187.488 -69.3056 -171.95
lowerback 0.598948 5.21223 -1.46966
upperback -4.46936 6.8651 0.0659932
thorax -5.13807 3.44724 0.52803
lowerneck 10.6695 -2.23046 -25.0398
upperneck 7.34321 -12.5068 47.3173
head 5.69372 -8.99731 27.829
rclavicle 1.15233e-013 3.3048e-014
rhumerus -32.3621 -10.2793 -84.2489
rradius 60.8064
rwrist -38.2519
rhand -32.0384 -35.1871
rfingers 7.12502
rthumb -5.2858 -65.1012
lclavicle 1.15233e-013 3.3048e-014
lhumerus -37.828 16.4324 63.6525
lradius 57.9695
lwrist 78.8596
lhand -26.4449 -11.136
lfingers 7.12502
lthumb 0.116039 18.8437
rfemur -16.2849 -21.8081 27.7612
rtibia 66.908
rfoot -15.4539 10.3137
rtoes -38.5229
lfemur -55.2648 13.3038 -29.5586
ltibia 70.4521
lfoot -31.4617 1.69827
ltoes -3.37355
114
root -4.317 13.7629 37.0041 187.34 -68.6318 -171.772
lowerback 0.705723 5.39831 -1.85616
upperback -4.45917 7.10499 0.148494
thorax -5.25472 3.58478 0.796191
lowerneck 10.5683 -2.18607 -24.9157
upperneck 7.37759 -12.4373 47.3747
head 5.68683 -8.95437 27.8501
rclavicle -2.883e-014 -1.98785e-016
rhumerus -32.5753 -11.6183 -83.5827
rradius 59.8514
rwrist -38.698
rhand -32.3065 -36.1281
rfingers 7.12502
rthumb -5.54462 -66.0356
lclavicle -2.883e-014 -1.98785e-016
lhumerus -38.0199 17.3636 62.5311
lradius 57.4273
lwrist 79.7266
lhand -27.1337 -11.3531
lfingers 7.12502
lthumb -0.549194 18.6259
rfemur -15.6378 -21.3954 27.9883
rtibia 65.9946
rfoot -16.8027 10.1843
rtoes -38.6516
lfemur -55.7924 14.1376 -29.5072
ltibia 71.1153
lfoot -31.7249 1.52528
ltoes -3.394
115
root -4.28553 13.7227 37.0037 187.261 -68.1208 -171.597
lowerback 0.792921 5.52685 -2.0344
upperback -4.47181 7.27225 0.198922
thorax -5.35374 3.67675 0.923085
lowerneck 10.4567 -2.13173 -24.8384
upperneck 7.41378 -12.3527 47.4289
head 5.68028 -8.90517 27.896
rclavicle 1.2019e-013 1.67476e-014
rhumerus -32.8135 -12.9274 -82.8706
rradius 58.9007
rwrist -38.9843
rhand -32.5335 -37.0009
rfingers 7.12502
rthumb -5.76385 -66.9025
lclavicle 1.2019e-013 1.67476e-014
lhumerus -38.2275 18.3287 61.4008
lradius 56.8994
lwrist 80.5551
lhand -27.8129 -11.5087
lfingers 7.12502
lthumb -1.20521 18.4677
rfemur -15.1985 -21.1889 28.1853
rtibia 65.2441
rfoot -18.1968 10.1146
rtoes -38.7335
lfemur -56.4162 14.7001 -29.5024
ltibia 71.7824
lfoot -31.9249 1.44549
ltoes -3.3899
